<?xml version="1.0" encoding="iso-8859-1"?>
<!-- Uploaded to: SVG Repo, www.svgrepo.com, Generator: SVG Repo Mixer Tools -->
<!DOCTYPE svg PUBLIC "-//W3C//DTD SVG 1.1//EN" "http://www.w3.org/Graphics/SVG/1.1/DTD/svg11.dtd">
<svg fill="#000000" height="800px" width="800px" version="1.1" id="Capa_1" xmlns="http://www.w3.org/2000/svg" xmlns:xlink="http://www.w3.org/1999/xlink" 
	 viewBox="0 0 204.194 204.194" xml:space="preserve">
<path d="M102.13,184.931c-0.228,0-0.458-0.041-0.68-0.125c-0.301-0.094-0.581-0.258-0.81-0.488
	c-3.869-2.647-34.979-23.847-54.236-34.239c-8.681-4.685-21.133-13.131-31.155-26.771C5.13,109.538,0,93.87,0,76.739
	c0-26.514,13.461-57.475,51.4-57.475c30.412,0,45.646,21.201,50.697,30.091c5.049-8.89,20.282-30.091,50.697-30.091
	c37.939,0,51.4,30.961,51.4,57.475c0,17.131-5.13,32.799-15.249,46.57c-10.022,13.64-22.475,22.086-31.155,26.771
	c-19.239,10.382-50.306,31.549-54.226,34.231C103.179,184.713,102.659,184.931,102.13,184.931z M51.4,23.264
	C6.285,23.264,4,67.809,4,76.739c0,41.44,30.983,62.632,44.304,69.82c18.446,9.954,47.548,29.652,53.793,33.91
	c6.246-4.259,35.347-23.956,53.793-33.91c13.321-7.188,44.304-28.38,44.304-69.82c0-8.93-2.285-53.475-47.4-53.475
	c-33.078,0-46.516,26.048-48.874,31.27c-0.324,0.716-1.037,1.177-1.823,1.177s-1.499-0.46-1.823-1.177
	C97.916,49.312,84.475,23.264,51.4,23.264z M102.565,158.204c-0.925,0-1.751-0.645-1.953-1.578c0,0,0,0,0,0
	c0-0.002,0-0.003-0.001-0.005c0,0,0,0,0,0c0-0.002,0-0.004-0.001-0.005c0,0,0,0,0-0.001c0-0.001-0.001-0.003-0.001-0.005v0
	c-0.001-0.006-0.003-0.013-0.004-0.02c-0.086-0.44-0.866-4.463-1.762-10.313c-1.083-4.126-2.827-8.92-5.617-13.156
	c-3.135-4.758-6.399-7.652-7.671-8.686c-4.137,1.627-20.761,6.906-33.459-7.269l0,0c-14.773-16.491-2.74-44.634-2.22-45.824
	c0.292-0.669,0.926-1.125,1.653-1.191c0.732-0.074,1.433,0.271,1.84,0.876c0.054,0.08,5.443,8.031,11.124,10.516
	c1.09,0.477,2.436,0.98,3.86,1.512c7.015,2.622,16.622,6.212,20.746,15.115c3.993,8.62,0.65,19.169-0.935,23.228
	c1.564,1.277,5.041,4.418,8.402,9.522c0.129,0.196,0.256,0.393,0.382,0.591c-0.819-8.093-1.296-16.836-0.726-24.079
	c1.42-18.046,4.109-36.415,19.669-45.369c6.765-3.892,13.806-3.934,19.315-0.115c5.078,3.521,7.992,9.811,7.085,15.295
	c-0.838,5.07-4.3,9.257-9.035,10.927c-4.23,1.491-8.651,0.691-11.824-2.142c-4.339-3.875-4.249-7.898-3.809-9.951
	c0.597-2.784,2.505-5.132,4.75-5.842c1.052-0.333,2.177,0.25,2.51,1.303c0.333,1.053-0.25,2.177-1.303,2.51
	c-0.637,0.202-1.693,1.225-2.045,2.867c-0.446,2.08,0.464,4.257,2.562,6.13c2.068,1.847,4.994,2.352,7.829,1.353
	c3.359-1.185,5.819-4.176,6.419-7.807c0.653-3.951-1.625-8.727-5.418-11.355c-4.25-2.946-9.591-2.842-15.041,0.294
	c-13.885,7.991-16.284,24.529-17.677,42.216c-0.905,11.502,1.005,27.388,2.568,37.697c0.065,0.253,0.128,0.502,0.189,0.75
	c0.618-1.582,1.388-3.183,2.345-4.66c3.007-4.645,7.481-7.614,9.554-8.82c-0.03-2.839,0.334-11.971,5.944-17.269
	c5.475-5.172,13.568-4.989,18.925-4.868c1.127,0.025,2.191,0.049,3.065,0.021c4.475-0.144,10.295-4.08,10.353-4.12
	c0.603-0.412,1.383-0.462,2.034-0.131c0.651,0.331,1.07,0.99,1.093,1.719c0.031,0.982,0.583,24.136-14.513,31.617
	c-11.783,5.841-21.334-0.527-24.876-3.517c-1.724,1.007-5.672,3.603-8.223,7.541c-3.265,5.042-4.051,12.112-4.106,12.653
	c-0.013,0.163-0.045,0.322-0.095,0.473c-0.072,0.218-0.18,0.419-0.316,0.596c-0.286,0.371-0.703,0.643-1.199,0.74
	C102.822,158.192,102.692,158.204,102.565,158.204z M119.956,133.55c3.154,2.569,10.679,7.18,20.036,2.545
	c9.644-4.779,11.738-18.04,12.181-24.407c-2.48,1.299-6.011,2.8-9.243,2.904c-0.982,0.03-2.101,0.006-3.285-0.02
	c-4.983-0.112-11.807-0.266-16.089,3.777c-3.058,2.888-4.136,7.533-4.505,10.884c2.576-1.864,6.361-4.342,10.581-6.255
	c7.618-3.453,13.206-4.166,13.439-4.195c1.098-0.132,2.094,0.646,2.229,1.742c0.134,1.096-0.645,2.093-1.741,2.228
	c-0.117,0.015-5.303,0.708-12.276,3.868C126.504,128.788,122.242,131.802,119.956,133.55z M52.304,76.255
	c-2.592,7.646-7.54,26.731,2.771,38.24c9.074,10.128,20.462,8.754,26.14,7.186c-4.615-3.144-12.806-9.002-16.977-13.654
	c-6.039-6.736-7.887-10.96-9.145-14.391c-0.38-1.037,0.152-2.186,1.189-2.566c1.034-0.379,2.186,0.151,2.566,1.189
	c1.13,3.082,2.801,6.889,8.368,13.098c4.244,4.733,13.413,11.113,17.487,13.851c1.443-3.974,3.879-12.633,0.764-19.357
	c-3.433-7.413-12.15-10.67-18.516-13.049c-1.478-0.552-2.873-1.074-4.063-1.594C58.586,83.324,54.655,79.14,52.304,76.255z"/>
</svg>